<?xml version="1.0" standalone="no"?>
<!DOCTYPE svg PUBLIC "-//W3C//DTD SVG 20010904//EN"
 "http://www.w3.org/TR/2001/REC-SVG-20010904/DTD/svg10.dtd">
<svg version="1.0" xmlns="http://www.w3.org/2000/svg"
 width="2080.000000pt" height="2080.000000pt" viewBox="0 0 2080.000000 2080.000000"
 preserveAspectRatio="xMidYMid meet">
<metadata>
Created by potrace 1.14, written by Peter Selinger 2001-2017
</metadata>
<g transform="translate(0.000000,2080.000000) scale(0.100000,-0.100000)"
fill="#000000" stroke="none">
<path d="M0 10400 l0 -4160 10400 0 10400 0 0 4160 0 4160 -10400 0 -10400 0
0 -4160z m2260 3513 c0 -8 8 -55 64 -418 14 -88 59 -378 101 -645 41 -267 86
-555 100 -640 33 -212 79 -504 185 -1185 121 -780 112 -728 121 -685 4 19 134
833 290 1807 l284 1773 818 0 817 0 0 -3132 c0 -1722 2 -3129 5 -3127 4 5 92
581 325 2139 174 1162 302 2013 310 2065 6 33 26 168 46 300 35 241 51 347
125 835 21 146 60 402 85 570 25 168 48 315 51 328 l5 22 844 0 c464 0 844 -3
844 -7 0 -4 11 -79 25 -167 13 -89 76 -507 140 -931 63 -423 122 -813 130
-865 13 -85 48 -314 200 -1335 25 -165 52 -343 60 -395 8 -52 26 -169 40 -260
13 -91 45 -300 69 -465 25 -165 77 -511 116 -770 39 -258 77 -515 86 -570 8
-55 25 -167 38 -250 l22 -150 7 445 c4 245 7 1632 7 3083 l0 2637 708 0 c779
0 861 -5 1089 -60 209 -50 380 -122 565 -237 276 -170 542 -450 713 -749 25
-44 45 -73 45 -65 0 19 -129 1051 -136 1084 l-6 27 648 -2 648 -3 22 -165 c13
-91 44 -318 69 -505 68 -507 91 -674 129 -955 20 -140 56 -408 81 -595 25
-187 54 -403 65 -480 11 -77 51 -376 90 -665 98 -728 118 -872 123 -877 3 -2
8 22 12 54 3 32 44 335 91 673 46 338 95 696 109 795 14 99 54 394 90 655 36
261 76 556 90 655 121 887 186 1355 190 1383 l6 32 1784 0 1785 0 0 -645 0
-645 -570 0 -570 0 0 -790 0 -790 570 0 570 0 0 -645 0 -645 -567 -2 -568 -3
-3 -802 -2 -803 570 0 570 0 0 -635 0 -635 -1200 0 -1200 0 -1 3163 c-1 1739
-5 3144 -10 3122 -4 -22 -39 -240 -78 -485 -71 -450 -140 -886 -295 -1860 -47
-294 -115 -722 -151 -950 -36 -228 -95 -597 -130 -820 -108 -679 -243 -1529
-290 -1830 -25 -157 -48 -297 -51 -313 l-6 -27 -741 2 -741 3 -192 1150 c-106
633 -271 1616 -366 2185 l-173 1035 -6 -150 c-9 -200 -26 -300 -84 -485 -78
-252 -223 -520 -394 -732 -34 -42 -110 -123 -170 -180 l-108 -103 219 -745
c120 -410 300 -1020 398 -1356 99 -337 180 -614 180 -618 0 -3 -281 -6 -624
-6 -586 0 -625 1 -630 18 -3 9 -96 364 -206 787 -282 1078 -398 1517 -402
1521 -2 1 -68 -7 -146 -18 l-142 -22 0 -1143 0 -1143 -1204 0 c-663 0 -1207 4
-1210 8 -5 8 -54 354 -123 865 l-27 207 -492 0 -492 0 -6 -27 c-3 -16 -21
-147 -41 -293 -19 -146 -42 -310 -50 -365 -8 -55 -21 -154 -30 -220 -8 -66
-18 -132 -21 -147 l-6 -28 -1224 0 -1224 0 0 1672 c0 919 -2 1669 -4 1667 -2
-2 -27 -141 -56 -309 -81 -482 -214 -1276 -295 -1755 -41 -242 -104 -618 -140
-835 -36 -217 -68 -405 -70 -417 l-5 -23 -340 0 c-187 0 -340 2 -340 4 0 2 -7
41 -14 87 -8 46 -58 341 -111 654 -53 314 -118 701 -145 860 -27 160 -90 533
-140 830 -143 850 -150 888 -155 893 -3 3 -5 -745 -5 -1661 l0 -1667 -640 0
-640 0 0 3520 0 3520 810 0 c446 0 810 -3 810 -7z m16860 -2878 l0 -2885 540
0 540 0 -2 -632 -3 -633 -1170 0 -1170 0 -3 3518 -2 3517 635 0 635 0 0 -2885z"/>
<path d="M9890 11531 c0 -1107 0 -1131 19 -1131 38 0 167 29 219 48 187 71
359 237 464 447 89 178 127 338 135 581 19 556 -146 927 -489 1100 -81 41
-190 72 -280 81 l-68 6 0 -1132z"/>
<path d="M6811 11852 c-12 -108 -33 -289 -46 -402 -13 -113 -42 -361 -64 -553
-23 -191 -59 -503 -81 -695 -22 -191 -52 -444 -65 -562 -14 -118 -34 -290 -45
-382 -11 -92 -20 -170 -20 -173 0 -8 698 -6 703 3 2 4 -19 203 -49 442 -29
239 -85 703 -124 1030 -129 1073 -179 1483 -183 1486 -1 2 -13 -85 -26 -194z"/>
</g>
</svg>
